<svg id="svg" version="1.1" xmlns="http://www.w3.org/2000/svg" xmlns:xlink="http://www.w3.org/1999/xlink" width="400" height="400" viewBox="0, 0, 400,400"><g id="svgg"><path id="path0" d="M100.000 200.370 L 100.000 300.000 147.778 300.000 L 195.556 300.000 195.556 200.370 L 195.556 100.741 147.778 100.741 L 100.000 100.741 100.000 200.370 M204.815 200.370 L 204.815 300.000 252.407 300.000 L 300.000 300.000 300.000 221.715 C 300.000 134.968,300.159 140.756,297.556 132.963 C 292.751 118.581,281.340 107.417,266.764 102.835 C 260.334 100.814,259.073 100.741,230.861 100.741 L 204.815 100.741 204.815 200.370 " stroke="none" fill="#fafbfc" fill-rule="evenodd"></path><path id="path1" d="M0.000 200.000 L 0.000 400.000 200.000 400.000 L 400.000 400.000 400.000 200.000 L 400.000 0.000 200.000 0.000 L 0.000 0.000 0.000 200.000 M195.556 200.370 L 195.556 300.370 147.778 300.370 L 100.000 300.370 100.000 200.370 L 100.000 100.370 147.778 100.370 L 195.556 100.370 195.556 200.370 M262.963 101.563 C 281.707 106.178,294.608 119.144,299.369 138.148 L 300.158 141.296 300.272 220.833 L 300.385 300.370 252.600 300.370 L 204.815 300.370 204.815 200.349 L 204.815 100.327 231.944 100.466 L 259.074 100.605 262.963 101.563 " stroke="none" fill="#1474fc" fill-rule="evenodd"></path><path id="path2" d="M123.981 100.648 C 137.069 100.702,158.486 100.702,171.574 100.648 C 184.662 100.594,173.954 100.550,147.778 100.550 C 121.602 100.550,110.894 100.594,123.981 100.648 M217.315 100.648 C 224.088 100.704,235.171 100.704,241.944 100.648 C 248.718 100.591,243.176 100.545,229.630 100.545 C 216.083 100.545,210.542 100.591,217.315 100.648 M300.182 222.778 C 300.182 265.352,300.225 282.823,300.278 261.604 C 300.331 240.384,300.331 205.550,300.278 184.196 C 300.225 162.842,300.182 180.204,300.182 222.778 M123.981 300.278 C 137.069 300.332,158.486 300.332,171.574 300.278 C 184.662 300.224,173.954 300.180,147.778 300.180 C 121.602 300.180,110.894 300.224,123.981 300.278 " stroke="none" fill="#8cbcfc" fill-rule="evenodd"></path><path id="path3" d="M286.111 114.444 C 286.907 115.259,287.641 115.926,287.743 115.926 C 287.845 115.926,287.277 115.259,286.481 114.444 C 285.686 113.630,284.952 112.963,284.850 112.963 C 284.748 112.963,285.315 113.630,286.111 114.444 M228.611 300.278 C 241.801 300.332,263.384 300.332,276.574 300.278 C 289.764 300.224,278.972 300.180,252.593 300.180 C 226.213 300.180,215.421 300.224,228.611 300.278 " stroke="none" fill="#4c94fc" fill-rule="evenodd"></path><path id="path4" d="" stroke="none" fill="#6cacfc" fill-rule="evenodd"></path></g></svg>